<?xml version="1.0" encoding="UTF-8" standalone="no"?>
<!DOCTYPE svg PUBLIC "-//W3C//DTD SVG 1.1//EN" "http://www.w3.org/Graphics/SVG/1.1/DTD/svg11.dtd">
<svg width="100%" height="100%" viewBox="0 0 1720 607" version="1.1" xmlns="http://www.w3.org/2000/svg" xmlns:xlink="http://www.w3.org/1999/xlink" xml:space="preserve" xmlns:serif="http://www.serif.com/" style="fill-rule:evenodd;clip-rule:evenodd;stroke-linejoin:round;stroke-miterlimit:2;">
    <g transform="matrix(1,0,0,1,-115.321,-201.142)">
        <g id="space--planetary-orbits--planets--orbits-.svg" serif:id="space, planetary orbits, planets, orbits,.svg" transform="matrix(6.07,0,0,6.07,418.821,504.642)">
            <g transform="matrix(1,0,0,1,-50,-50)">
                <circle cx="76.667" cy="23.333" r="10" style="fill:rgb(66,66,67);"/>
                <circle cx="76.667" cy="23.333" r="3.333" style="fill:rgb(244,245,245);"/>
                <circle cx="23.333" cy="76.666" r="10" style="fill:rgb(66,66,67);"/>
                <circle cx="23.333" cy="76.666" r="3.334" style="fill:rgb(244,245,245);"/>
                <path d="M63.333,50C63.333,57.359 57.362,63.333 50,63.333C42.63,63.333 36.667,57.359 36.667,50C36.667,42.637 42.63,36.667 50,36.667C57.362,36.667 63.333,42.637 63.333,50Z" style="fill:rgb(66,66,67);fill-rule:nonzero;"/>
                <path d="M56.667,50C56.667,53.678 53.682,56.666 50,56.666C46.315,56.666 43.333,53.678 43.333,50C43.333,46.318 46.315,43.333 50,43.333C53.682,43.333 56.667,46.318 56.667,50Z" style="fill:rgb(244,245,245);fill-rule:nonzero;"/>
                <path d="M47.333,50C47.333,47.015 49.294,44.489 51.999,43.64C51.368,43.442 50.697,43.334 50,43.334C46.315,43.334 43.333,46.318 43.333,50.001C43.333,53.679 46.315,56.667 50,56.667C50.697,56.667 51.368,56.559 51.999,56.36C49.294,55.51 47.333,52.982 47.333,50Z" style="fill:rgb(224,224,224);fill-rule:nonzero;"/>
                <path d="M40.01,67.308C42.949,69.01 46.354,70 50,70C61.045,70 70,61.041 70,49.997C70,46.354 69.011,42.949 67.308,40.006L73.077,36.676C75.347,40.598 76.668,45.139 76.668,49.996C76.668,64.72 64.728,76.665 50.001,76.665C45.141,76.665 40.6,75.348 36.68,73.079L40.01,67.308Z" style="fill:rgb(255,192,14);fill-rule:nonzero;"/>
                <path d="M32.695,59.994C30.989,57.047 30,53.643 30,49.997C30,38.952 38.948,30 50,30C53.646,30 57.05,30.99 59.994,32.692L63.323,26.924C59.401,24.654 54.859,23.333 50,23.333C35.264,23.333 23.333,35.27 23.333,49.997C23.333,54.856 24.655,59.396 26.924,63.323L32.695,59.994Z" style="fill:rgb(255,192,14);fill-rule:nonzero;"/>
                <path d="M81.295,38.613C82.591,42.168 83.333,45.989 83.333,49.993C83.333,68.398 68.408,83.332 50,83.332C45.993,83.332 42.167,82.59 38.613,81.294L36.335,87.551C40.602,89.107 45.192,90 50,90C72.089,90 90,72.08 90,49.994C90,45.189 89.107,40.603 87.555,36.335L81.295,38.613Z" style="fill:rgb(255,192,14);fill-rule:nonzero;"/>
                <path d="M45.322,76.239C45.274,73.718 44.805,71.3 43.974,69.054C42.582,68.611 41.252,68.028 40.009,67.307L36.678,73.079C39.31,74.604 42.224,75.683 45.322,76.239Z" style="fill:rgb(246,142,30);fill-rule:nonzero;"/>
                <path d="M44.442,82.85C42.433,82.502 40.484,81.979 38.612,81.295L36.334,87.552C38.007,88.162 39.732,88.667 41.498,89.06C42.787,87.178 43.786,85.086 44.442,82.85Z" style="fill:rgb(246,142,30);fill-rule:nonzero;"/>
                <path d="M73.076,36.677L67.307,40.007C68.028,41.252 68.611,42.583 69.055,43.976C71.301,44.807 73.718,45.275 76.237,45.324C75.682,42.225 74.599,39.31 73.076,36.677Z" style="fill:rgb(246,142,30);fill-rule:nonzero;"/>
                <path d="M87.555,36.334L81.295,38.613C81.979,40.486 82.502,42.435 82.85,44.443C85.087,43.787 87.178,42.788 89.06,41.5C88.667,39.733 88.164,38.009 87.555,36.334Z" style="fill:rgb(246,142,30);fill-rule:nonzero;"/>
                <path d="M18.708,61.389C17.41,57.828 16.667,54.003 16.667,49.994C16.667,31.589 31.582,16.667 50,16.667C54.006,16.667 57.831,17.409 61.389,18.705L63.669,12.448C59.396,10.892 54.808,10 50,10C27.897,10 10,27.907 10,49.994C10,54.805 10.892,59.394 12.448,63.669L18.708,61.389Z" style="fill:rgb(255,192,14);fill-rule:nonzero;"/>
                <path d="M54.678,23.763C54.727,26.283 55.196,28.701 56.026,30.946C57.42,31.39 58.75,31.973 59.995,32.693L63.324,26.925C60.692,25.401 57.776,24.319 54.678,23.763Z" style="fill:rgb(246,142,30);fill-rule:nonzero;"/>
                <path d="M55.558,17.151C57.568,17.499 59.516,18.023 61.389,18.705L63.669,12.448C61.994,11.838 60.268,11.334 58.5,10.942C57.213,12.823 56.214,14.914 55.558,17.151Z" style="fill:rgb(246,142,30);fill-rule:nonzero;"/>
                <path d="M12.448,63.669L18.708,61.389C18.024,59.516 17.5,57.566 17.152,55.557C14.915,56.213 12.823,57.213 10.943,58.5C11.334,60.268 11.838,61.994 12.448,63.669Z" style="fill:rgb(246,142,30);fill-rule:nonzero;"/>
                <path d="M26.924,63.323L32.695,59.994C31.974,58.748 31.391,57.419 30.946,56.025C28.7,55.195 26.282,54.724 23.762,54.676C24.319,57.775 25.402,60.69 26.924,63.323Z" style="fill:rgb(246,142,30);fill-rule:nonzero;"/>
            </g>
        </g>
        <g transform="matrix(0.92516,0,0,0.92516,-18.4846,-39.31)">
            <g transform="matrix(288,0,0,288,839,700)">
                <path d="M0.288,-0.701C0.391,-0.701 0.471,-0.683 0.526,-0.647C0.581,-0.61 0.609,-0.551 0.609,-0.468C0.609,-0.385 0.581,-0.325 0.525,-0.288C0.469,-0.251 0.389,-0.232 0.285,-0.232L0.236,-0.232L0.236,-0L0.08,-0L0.08,-0.683C0.114,-0.69 0.15,-0.694 0.188,-0.697C0.226,-0.7 0.259,-0.701 0.288,-0.701ZM0.298,-0.568C0.287,-0.568 0.276,-0.568 0.265,-0.567C0.254,-0.566 0.244,-0.566 0.236,-0.565L0.236,-0.365L0.285,-0.365C0.339,-0.365 0.38,-0.372 0.407,-0.387C0.434,-0.402 0.448,-0.429 0.448,-0.469C0.448,-0.488 0.445,-0.504 0.438,-0.517C0.431,-0.53 0.421,-0.54 0.407,-0.548C0.395,-0.555 0.379,-0.561 0.36,-0.564C0.341,-0.567 0.321,-0.568 0.298,-0.568Z" style="fill:rgb(66,66,67);fill-rule:nonzero;"/>
            </g>
            <g transform="matrix(288,0,0,288,1024.47,700)">
                <path d="M0.387,-0.394C0.374,-0.397 0.358,-0.401 0.34,-0.405C0.322,-0.408 0.303,-0.41 0.282,-0.41C0.273,-0.41 0.262,-0.409 0.249,-0.407C0.235,-0.406 0.226,-0.404 0.219,-0.402L0.219,-0L0.07,-0L0.07,-0.498C0.097,-0.507 0.128,-0.516 0.165,-0.525C0.201,-0.533 0.241,-0.537 0.286,-0.537C0.294,-0.537 0.304,-0.537 0.315,-0.536C0.326,-0.535 0.338,-0.533 0.349,-0.532C0.36,-0.53 0.372,-0.528 0.383,-0.526C0.394,-0.523 0.404,-0.52 0.412,-0.517L0.387,-0.394Z" style="fill:rgb(66,66,67);fill-rule:nonzero;"/>
            </g>
            <g transform="matrix(288,0,0,288,1143.13,700)">
                <path d="M0.562,-0.264C0.562,-0.223 0.556,-0.185 0.544,-0.151C0.532,-0.116 0.515,-0.087 0.492,-0.063C0.469,-0.038 0.442,-0.019 0.41,-0.006C0.379,0.007 0.343,0.014 0.304,0.014C0.265,0.014 0.23,0.007 0.199,-0.006C0.167,-0.019 0.14,-0.038 0.117,-0.063C0.094,-0.087 0.077,-0.116 0.064,-0.151C0.051,-0.185 0.045,-0.223 0.045,-0.264C0.045,-0.305 0.051,-0.343 0.065,-0.377C0.078,-0.411 0.096,-0.44 0.118,-0.464C0.141,-0.488 0.169,-0.507 0.201,-0.52C0.232,-0.533 0.267,-0.54 0.304,-0.54C0.342,-0.54 0.377,-0.533 0.408,-0.52C0.44,-0.507 0.467,-0.488 0.49,-0.464C0.513,-0.44 0.53,-0.411 0.543,-0.377C0.556,-0.343 0.562,-0.305 0.562,-0.264ZM0.41,-0.264C0.41,-0.31 0.401,-0.346 0.383,-0.373C0.364,-0.399 0.338,-0.412 0.304,-0.412C0.27,-0.412 0.244,-0.399 0.225,-0.373C0.206,-0.346 0.197,-0.31 0.197,-0.264C0.197,-0.218 0.206,-0.182 0.225,-0.155C0.244,-0.128 0.27,-0.114 0.304,-0.114C0.338,-0.114 0.364,-0.128 0.383,-0.155C0.401,-0.182 0.41,-0.218 0.41,-0.264Z" style="fill:rgb(66,66,67);fill-rule:nonzero;"/>
            </g>
            <g transform="matrix(288,0,0,288,1312.76,700)">
                <path d="M0.278,-0.379L0.383,-0.526L0.537,-0.526L0.354,-0.27C0.396,-0.222 0.433,-0.174 0.466,-0.127C0.498,-0.079 0.524,-0.037 0.544,-0L0.384,-0C0.379,-0.01 0.372,-0.023 0.364,-0.038C0.356,-0.053 0.347,-0.068 0.337,-0.085C0.327,-0.101 0.317,-0.115 0.306,-0.126C0.295,-0.137 0.284,-0.148 0.274,-0.157C0.264,-0.148 0.253,-0.139 0.243,-0.128C0.233,-0.118 0.223,-0.105 0.213,-0.089C0.204,-0.074 0.195,-0.058 0.186,-0.043C0.177,-0.028 0.169,-0.013 0.162,-0L0.01,-0C0.018,-0.016 0.029,-0.036 0.043,-0.059C0.057,-0.082 0.072,-0.105 0.088,-0.13C0.105,-0.154 0.123,-0.177 0.142,-0.2C0.161,-0.223 0.179,-0.245 0.198,-0.265C0.165,-0.311 0.134,-0.356 0.103,-0.399C0.073,-0.442 0.043,-0.484 0.014,-0.526L0.175,-0.526L0.278,-0.379Z" style="fill:rgb(66,66,67);fill-rule:nonzero;"/>
            </g>
            <g transform="matrix(288,0,0,288,1472.31,700)">
                <path d="M0.219,-0L0.07,-0L0.07,-0.526L0.219,-0.526L0.219,-0ZM0.233,-0.678C0.233,-0.651 0.224,-0.629 0.206,-0.614C0.189,-0.598 0.168,-0.59 0.144,-0.59C0.12,-0.59 0.099,-0.598 0.082,-0.614C0.064,-0.629 0.055,-0.651 0.055,-0.678C0.055,-0.705 0.064,-0.727 0.082,-0.743C0.099,-0.758 0.12,-0.766 0.144,-0.766C0.168,-0.766 0.189,-0.758 0.206,-0.743C0.224,-0.727 0.233,-0.705 0.233,-0.678Z" style="fill:rgb(66,66,67);fill-rule:nonzero;"/>
            </g>
            <g transform="matrix(288,0,0,288,1555.54,700)">
                <path d="M0.359,-0.279C0.359,-0.327 0.353,-0.361 0.341,-0.381C0.328,-0.401 0.307,-0.411 0.277,-0.411C0.268,-0.411 0.258,-0.41 0.248,-0.409C0.238,-0.408 0.228,-0.407 0.219,-0.406L0.219,-0L0.07,-0L0.07,-0.508C0.083,-0.511 0.098,-0.515 0.115,-0.519C0.132,-0.522 0.15,-0.526 0.169,-0.529C0.188,-0.532 0.207,-0.534 0.227,-0.536C0.247,-0.537 0.267,-0.538 0.286,-0.538C0.324,-0.538 0.355,-0.533 0.379,-0.524C0.402,-0.514 0.422,-0.502 0.437,-0.489C0.458,-0.504 0.483,-0.516 0.51,-0.525C0.538,-0.534 0.564,-0.538 0.587,-0.538C0.629,-0.538 0.664,-0.532 0.691,-0.521C0.718,-0.509 0.739,-0.492 0.755,-0.471C0.771,-0.45 0.782,-0.424 0.788,-0.395C0.794,-0.366 0.797,-0.333 0.797,-0.297L0.797,-0L0.648,-0L0.648,-0.279C0.648,-0.327 0.642,-0.361 0.629,-0.381C0.617,-0.401 0.596,-0.411 0.566,-0.411C0.558,-0.411 0.547,-0.409 0.533,-0.405C0.518,-0.401 0.506,-0.396 0.497,-0.39C0.502,-0.375 0.505,-0.359 0.506,-0.342C0.507,-0.325 0.508,-0.306 0.508,-0.287L0.508,-0L0.359,-0L0.359,-0.279Z" style="fill:rgb(66,66,67);fill-rule:nonzero;"/>
            </g>
            <g transform="matrix(288,0,0,288,1803.8,700)">
                <path d="M0.271,-0.104C0.286,-0.104 0.3,-0.104 0.313,-0.105C0.326,-0.106 0.337,-0.107 0.345,-0.108L0.345,-0.221C0.339,-0.222 0.33,-0.224 0.318,-0.225C0.306,-0.226 0.295,-0.227 0.285,-0.227C0.271,-0.227 0.258,-0.226 0.246,-0.225C0.233,-0.223 0.222,-0.22 0.213,-0.215C0.204,-0.21 0.196,-0.204 0.191,-0.196C0.186,-0.188 0.183,-0.178 0.183,-0.166C0.183,-0.143 0.191,-0.127 0.206,-0.117C0.222,-0.109 0.244,-0.104 0.271,-0.104ZM0.259,-0.54C0.303,-0.54 0.34,-0.535 0.369,-0.525C0.398,-0.515 0.422,-0.501 0.44,-0.482C0.457,-0.463 0.47,-0.441 0.477,-0.414C0.484,-0.387 0.488,-0.358 0.488,-0.325L0.488,-0.015C0.467,-0.01 0.437,-0.005 0.399,0.001C0.361,0.008 0.315,0.011 0.261,0.011C0.227,0.011 0.196,0.008 0.169,0.002C0.141,-0.004 0.117,-0.014 0.097,-0.028C0.077,-0.041 0.062,-0.059 0.051,-0.081C0.04,-0.103 0.035,-0.13 0.035,-0.162C0.035,-0.193 0.041,-0.219 0.054,-0.24C0.066,-0.261 0.082,-0.278 0.103,-0.291C0.124,-0.304 0.147,-0.313 0.174,-0.319C0.201,-0.324 0.228,-0.327 0.257,-0.327C0.276,-0.327 0.294,-0.326 0.309,-0.325C0.324,-0.323 0.336,-0.321 0.345,-0.318L0.345,-0.332C0.345,-0.357 0.337,-0.378 0.322,-0.393C0.307,-0.408 0.28,-0.416 0.242,-0.416C0.217,-0.416 0.192,-0.414 0.167,-0.41C0.142,-0.407 0.121,-0.402 0.103,-0.395L0.084,-0.515C0.093,-0.518 0.103,-0.521 0.117,-0.524C0.13,-0.527 0.144,-0.529 0.159,-0.532C0.174,-0.534 0.191,-0.536 0.207,-0.538C0.225,-0.539 0.242,-0.54 0.259,-0.54Z" style="fill:rgb(66,66,67);fill-rule:nonzero;"/>
            </g>
        </g>
    </g>
</svg>
