<?xml version="1.0" encoding="utf-8"?>
<!-- Generator: Adobe Illustrator 16.0.0, SVG Export Plug-In . SVG Version: 6.00 Build 0)  -->
<!DOCTYPE svg PUBLIC "-//W3C//DTD SVG 1.0//EN" "http://www.w3.org/TR/2001/REC-SVG-20010904/DTD/svg10.dtd">
<svg version="1.0" id="Layer_1" xmlns="http://www.w3.org/2000/svg" xmlns:xlink="http://www.w3.org/1999/xlink" x="0px" y="0px"
	 width="100px" height="100px" viewBox="0 0 100 100" enable-background="new 0 0 100 100" xml:space="preserve">
<circle fill="#424243" cx="76.667" cy="23.333" r="10"/>
<circle fill="#F4F5F5" cx="76.667" cy="23.333" r="3.333"/>
<circle fill="#424243" cx="23.333" cy="76.666" r="10"/>
<circle fill="#F4F5F5" cx="23.333" cy="76.666" r="3.334"/>
<path fill="#424243" d="M63.333,50c0,7.359-5.971,13.333-13.333,13.333c-7.37,0-13.333-5.974-13.333-13.333
	c0-7.363,5.963-13.333,13.333-13.333C57.362,36.667,63.333,42.637,63.333,50z"/>
<path fill="#F4F5F5" d="M56.667,50c0,3.678-2.985,6.666-6.667,6.666c-3.685,0-6.667-2.988-6.667-6.666
	c0-3.682,2.982-6.667,6.667-6.667C53.682,43.333,56.667,46.318,56.667,50z"/>
<path fill="#E0E0E0" d="M47.333,50c0-2.985,1.961-5.511,4.666-6.36c-0.631-0.198-1.302-0.306-1.999-0.306
	c-3.685,0-6.667,2.984-6.667,6.667c0,3.678,2.982,6.666,6.667,6.666c0.697,0,1.368-0.108,1.999-0.307
	C49.294,55.51,47.333,52.982,47.333,50z"/>
<path fill="#FFC00E" d="M40.01,67.308C42.949,69.01,46.354,70,50,70c11.045,0,20-8.959,20-20.003c0-3.643-0.989-7.048-2.692-9.991
	l5.769-3.33c2.27,3.922,3.591,8.463,3.591,13.32c0,14.724-11.94,26.669-26.667,26.669c-4.86,0-9.401-1.317-13.321-3.586
	L40.01,67.308z"/>
<path fill="#FFC00E" d="M32.695,59.994C30.989,57.047,30,53.643,30,49.997C30,38.952,38.948,30,50,30c3.646,0,7.05,0.99,9.994,2.692
	l3.329-5.768c-3.922-2.27-8.464-3.591-13.323-3.591c-14.736,0-26.667,11.937-26.667,26.664c0,4.859,1.322,9.399,3.591,13.326
	L32.695,59.994z"/>
<path fill="#FFC00E" d="M81.295,38.613c1.296,3.555,2.038,7.376,2.038,11.38c0,18.405-14.925,33.339-33.333,33.339
	c-4.007,0-7.833-0.742-11.387-2.038l-2.278,6.257C40.602,89.107,45.192,90,50,90c22.089,0,40-17.92,40-40.006
	c0-4.805-0.893-9.391-2.445-13.659L81.295,38.613z"/>
<path fill="#F68E1E" d="M45.322,76.239c-0.048-2.521-0.517-4.939-1.348-7.185c-1.392-0.443-2.722-1.026-3.965-1.747l-3.331,5.772
	C39.31,74.604,42.224,75.683,45.322,76.239z"/>
<path fill="#F68E1E" d="M44.442,82.85c-2.009-0.348-3.958-0.871-5.83-1.555l-2.278,6.257c1.673,0.61,3.398,1.115,5.164,1.508
	C42.787,87.178,43.786,85.086,44.442,82.85z"/>
<path fill="#F68E1E" d="M73.076,36.677l-5.769,3.33c0.721,1.245,1.304,2.576,1.748,3.969c2.246,0.831,4.663,1.299,7.182,1.348
	C75.682,42.225,74.599,39.31,73.076,36.677z"/>
<path fill="#F68E1E" d="M87.555,36.334l-6.26,2.279c0.684,1.873,1.207,3.822,1.555,5.83c2.237-0.656,4.328-1.655,6.21-2.943
	C88.667,39.733,88.164,38.009,87.555,36.334z"/>
<path fill="#FFC00E" d="M18.708,61.389c-1.298-3.561-2.041-7.386-2.041-11.395c0-18.405,14.915-33.327,33.333-33.327
	c4.006,0,7.831,0.742,11.389,2.038l2.28-6.257C59.396,10.892,54.808,10,50,10c-22.103,0-40,17.907-40,39.994
	c0,4.811,0.892,9.4,2.448,13.675L18.708,61.389z"/>
<path fill="#F68E1E" d="M54.678,23.763c0.049,2.52,0.518,4.938,1.348,7.183c1.394,0.444,2.724,1.027,3.969,1.747l3.329-5.768
	C60.692,25.401,57.776,24.319,54.678,23.763z"/>
<path fill="#F68E1E" d="M55.558,17.151c2.01,0.348,3.958,0.872,5.831,1.554l2.28-6.257c-1.675-0.61-3.401-1.114-5.169-1.506
	C57.213,12.823,56.214,14.914,55.558,17.151z"/>
<path fill="#F68E1E" d="M12.448,63.669l6.26-2.28c-0.684-1.873-1.208-3.823-1.556-5.832c-2.237,0.656-4.329,1.656-6.209,2.943
	C11.334,60.268,11.838,61.994,12.448,63.669z"/>
<path fill="#F68E1E" d="M26.924,63.323l5.771-3.329c-0.721-1.246-1.304-2.575-1.749-3.969c-2.246-0.83-4.664-1.301-7.184-1.349
	C24.319,57.775,25.402,60.69,26.924,63.323z"/>
</svg>
